<svg xmlns="http://www.w3.org/2000/svg" viewBox="0 0 64 64"><g id="SPY"><path d="M20,42a6,6,0,0,0-6,6,1,1,0,0,0,2,0,4,4,0,0,1,4-4A1,1,0,0,0,20,42Z"/><path d="M44,39a9,9,0,0,0-9,8.82,6,6,0,0,0-6,0C28.31,36,11.46,36.18,11,48c.07,9.82,13.57,12.39,17.31,3.46a4,4,0,0,1,7.35-.07c3.76,9,17.21,6.5,17.34-3.39A9,9,0,0,0,44,39ZM20,55a7,7,0,0,1-7-7c.33-9.26,13.67-9.26,14,0A7,7,0,0,1,20,55Zm24,0c-9.29-.25-9.16-13.79,0-14C53.26,41.33,53.26,54.67,44,55Z"/><path d="M44,42a6,6,0,0,0-6,6,1,1,0,0,0,2,0,4,4,0,0,1,4-4A1,1,0,0,0,44,42Z"/><path d="M60,34H55c0-.18,0-4.12-.07-4.15S47.07,9.12,47.07,9.11a6.35,6.35,0,0,0-10.85-.06L33.63,14.9a1,1,0,0,0,1.83.81L38,10a4.36,4.36,0,0,1,7.23,0L52.55,29.2H11.4L19.16,9.94a4.37,4.37,0,0,1,7.26,0L32.1,21.44a1,1,0,0,0,1.8-.88L28.18,9a6.37,6.37,0,0,0-10.84.07L9.07,29.63a1,1,0,0,0-.05.48s0,.06,0,.09V34H4a1,1,0,0,0,0,2H38a1,1,0,0,0,0-2H11V31.2H53V34H44a1,1,0,0,0,0,2H60A1,1,0,0,0,60,34Z"/><path d="M40.62,35.92a1,1,0,0,0,1.09-1.63C40.55,33.23,39.18,35.27,40.62,35.92Z"/></g></svg>